<svg xmlns="http://www.w3.org/2000/svg" viewBox="0 0 264.44 228.3"><defs><style>.cls-1{fill:none;stroke-miterlimit:10;stroke-width:6px;}.cls-1,.cls-2{stroke:#fff;}.cls-2{font-size:57px;fill:#fff;font-family:MyriadPro-Regular, Myriad Pro;}.cls-3{letter-spacing:-0.02em;}.cls-4{letter-spacing:-0.04em;}.cls-5{letter-spacing:-0.03em;}.cls-6{letter-spacing:0em;}</style></defs><g id="Layer_2" data-name="Layer 2"><g id="Layer_1-2" data-name="Layer 1"><rect class="cls-1" x="7.22" y="37.12" width="250" height="132.54" rx="13.72"/><ellipse class="cls-1" cx="132.22" cy="103.39" rx="52.08" ry="55.23"/><ellipse class="cls-1" cx="132.22" cy="103.39" rx="41.67" ry="44.18"/><rect class="cls-1" x="203.43" y="47.84" width="41.67" height="17.67" rx="4.14"/><path class="cls-1" d="M105.28,3h54.49a15.45,15.45,0,0,1,15.45,15.45V37.12a0,0,0,0,1,0,0H89.83a0,0,0,0,1,0,0V18.45A15.45,15.45,0,0,1,105.28,3Z"/><line class="cls-1" x1="7.22" y1="89.45" x2="83" y2="89.45"/><line class="cls-1" x1="7.22" y1="124.01" x2="83" y2="124.01"/><line class="cls-1" x1="257.22" y1="89.45" x2="182.63" y2="89.45"/><line class="cls-1" x1="257.22" y1="124.01" x2="180.54" y2="124.01"/><text class="cls-2" transform="translate(8.22 213.55)"><tspan class="cls-3">V</tspan><tspan x="30.89" y="0">iew</tspan><tspan class="cls-4" x="114.74" y="0"> </tspan><tspan class="cls-5" x="124.77" y="0">W</tspan><tspan x="171.11" y="0">o</tspan><tspan class="cls-6" x="202.41" y="0">r</tspan><tspan x="221.27" y="0">k</tspan></text></g></g></svg>